<?xml version="1.0" encoding="UTF-8"?>
<!-- Generator: visioncortex VTracer 0.6.4 -->
<svg version="1.1" xmlns="http://www.w3.org/2000/svg" width="512" height="512">
<path d="M0 0 C0.94 0 1.88 0 2.85 0 C57.67 0.17 110.11 18.5 153.43 52.01 C155.32 53.43 157.26 54.77 159.21 56.11 C160.22 56.85 161.22 57.6 162.25 58.38 C162.25 59.03 162.25 59.69 162.25 60.38 C162.81 60.62 163.37 60.87 163.95 61.12 C166.64 62.59 168.71 64.34 171 66.38 C171.8 67.08 172.6 67.78 173.42 68.5 C175.25 70.38 175.25 70.38 175.25 72.38 C176.24 72.7 177.23 73.03 178.25 73.38 C178.25 74.03 178.25 74.69 178.25 75.38 C179.12 75.72 179.12 75.72 180 76.07 C182.81 77.7 184.23 79.6 186.19 82.19 C188.23 84.87 190.2 87.33 192.62 89.68 C195.95 93.1 198.67 96.81 201.44 100.69 C202.29 101.88 202.29 101.88 203.16 103.09 C215.66 120.71 226.08 139.02 233.5 159.33 C234.24 161.35 235 163.37 235.77 165.38 C241.75 181.38 245.49 197.52 248.25 214.38 C248.38 215.18 248.52 215.98 248.66 216.81 C258.56 279.1 239.67 345 203.48 395.86 C201.72 398.28 199.93 400.68 198.12 403.06 C197.57 403.8 197.01 404.54 196.44 405.3 C195.92 405.97 195.4 406.64 194.87 407.32 C194.41 407.92 193.95 408.51 193.48 409.12 C193.07 409.53 192.67 409.95 192.25 410.38 C191.59 410.38 190.93 410.38 190.25 410.38 C189.88 411.21 189.88 411.21 189.5 412.06 C188.02 414.8 186.32 417.05 184.25 419.38 C183.59 419.38 182.93 419.38 182.25 419.38 C181.59 420.69 180.93 422.01 180.25 423.38 C179.59 423.38 178.93 423.38 178.25 423.38 C177.98 423.97 177.71 424.57 177.44 425.19 C176.25 427.37 175.15 428.79 173.25 430.38 C172.59 430.38 171.93 430.38 171.25 430.38 C170.91 431.24 170.91 431.24 170.56 432.12 C168.9 434.97 166.93 436.5 164.25 438.38 C163.59 438.38 162.93 438.38 162.25 438.38 C162.25 439.04 162.25 439.69 162.25 440.38 C160.16 442.17 158.07 443.85 155.88 445.5 C155.27 445.97 154.67 446.44 154.05 446.92 C149.51 450.38 149.51 450.38 147.25 450.38 C147.25 451.04 147.25 451.69 147.25 452.38 C143.82 455.04 139.96 457.13 136.25 459.38 C135.46 459.86 134.66 460.35 133.84 460.84 C107.5 476.91 79.68 489.31 49.25 495.38 C48.33 495.57 47.4 495.76 46.45 495.96 C3.24 504.7 -44.76 500.56 -85.75 484.38 C-86.42 484.11 -87.09 483.85 -87.78 483.58 C-97.71 479.66 -107.33 475.22 -116.81 470.31 C-117.75 469.83 -118.69 469.35 -119.66 468.85 C-126.06 465.48 -131.89 461.61 -137.75 457.38 C-138.89 456.59 -140.03 455.81 -141.18 455.04 C-152.88 447.1 -163.51 438.1 -173.75 428.38 C-174.28 427.87 -174.82 427.36 -175.37 426.84 C-183.67 418.93 -190.87 410.54 -197.75 401.38 C-198.42 400.52 -199.08 399.67 -199.77 398.79 C-203.75 393.64 -203.75 393.64 -203.75 391.38 C-204.41 391.38 -205.07 391.38 -205.75 391.38 C-207.26 389.11 -208.65 386.86 -210 384.5 C-210.82 383.1 -211.64 381.7 -212.45 380.3 C-212.85 379.62 -213.25 378.94 -213.65 378.24 C-214.97 376 -216.36 373.82 -217.75 371.62 C-239.66 334.97 -248.97 292.36 -249 250.06 C-249 249.13 -249 248.19 -249 247.22 C-248.99 233.39 -248.53 219.96 -245.75 206.38 C-245.6 205.6 -245.45 204.83 -245.3 204.04 C-244.26 198.78 -243.06 193.57 -241.75 188.38 C-241.57 187.65 -241.39 186.93 -241.21 186.19 C-236.61 167.74 -229.82 150.08 -220.75 133.38 C-220.42 132.77 -220.09 132.16 -219.75 131.53 C-206.1 106.56 -186.6 77 -162.75 60.38 C-162.09 60.38 -161.43 60.38 -160.75 60.38 C-160.75 59.72 -160.75 59.06 -160.75 58.38 C-159.46 57.13 -159.46 57.13 -157.63 55.72 C-156.61 54.94 -156.61 54.94 -155.57 54.14 C-154.82 53.58 -154.08 53.01 -153.31 52.44 C-152.55 51.86 -151.78 51.28 -150.99 50.68 C-143.78 45.29 -136.35 40.3 -128.68 35.57 C-126.97 34.51 -125.26 33.42 -123.55 32.34 C-97.53 16.49 -66.76 6.81 -36.75 2.38 C-35.05 2.11 -35.05 2.11 -33.31 1.84 C-22.2 0.27 -11.21 -0.03 0 0 Z " fill="#FEFEFE" transform="translate(254.75,6.625)"/>
<path d="M0 0 C7.68 1.71 13.28 3.65 20.19 7 C21.2 7.49 22.21 7.98 23.25 8.48 C30.77 12.2 37.85 16.26 44.33 21.63 C45.6 22.67 46.91 23.66 48.24 24.63 C54.49 29.5 54.49 29.5 55.83 33.42 C56.13 36.22 56.16 38.9 56.08 41.72 C56.09 43.3 56.09 43.3 56.11 44.92 C56.12 48.45 56.07 51.97 56.02 55.5 C56.02 58.03 56.02 60.57 56.03 63.1 C56.03 68.55 56 73.99 55.95 79.44 C55.88 87.32 55.85 95.19 55.84 103.07 C55.82 115.85 55.76 128.63 55.68 141.41 C55.6 153.82 55.53 166.23 55.49 178.64 C55.49 179.4 55.49 180.17 55.49 180.96 C55.48 184.8 55.46 188.64 55.45 192.48 C55.36 224.32 55.19 256.16 55 288 C37.84 288 20.68 288 3 288 C2.67 283.05 2.34 278.1 2 273 C0.68 274.15 -0.64 275.31 -2 276.5 C-8.7 281.89 -16.21 285.44 -24 289 C-24.8 289.37 -25.59 289.74 -26.41 290.12 C-38.44 294.19 -52.02 294.28 -64.56 294.31 C-65.71 294.32 -66.87 294.32 -68.05 294.33 C-78.67 294.24 -88.75 292.81 -98.81 289.38 C-99.57 289.12 -100.34 288.86 -101.12 288.59 C-128.1 279.05 -149.74 259.02 -162.17 233.35 C-163.14 231.25 -164.08 229.13 -165 227 C-165.31 226.28 -165.62 225.56 -165.94 224.82 C-182.94 184.22 -181.07 135.01 -165.18 94.41 C-159.6 80.86 -152.24 69.55 -142 59 C-141.08 57.97 -141.08 57.97 -140.15 56.93 C-134.34 50.64 -127.32 46.29 -120 42 C-119.03 41.43 -118.06 40.86 -117.06 40.27 C-103.74 33.06 -88.65 29.88 -73.58 29.8 C-72.8 29.79 -72.02 29.79 -71.22 29.78 C-69.58 29.77 -67.94 29.76 -66.3 29.76 C-63.84 29.75 -61.37 29.72 -58.9 29.69 C-37.05 29.54 -17.14 36.28 0 50 C0 33.5 0 17 0 0 Z " fill="#E34634" transform="translate(302,136)"/>
<path d="M0 0 C19.8 14.56 29.02 35.23 33.08 58.84 C36.23 80.16 37 106.47 31.14 127.21 C30.92 128.02 30.7 128.82 30.47 129.64 C24.23 151.5 12.73 166.62 -6.84 177.97 C-16.5 183.18 -26.47 184.07 -36.98 181.15 C-55.53 174.94 -68.69 162.11 -77.79 145.09 C-93.34 112.38 -93.24 67.62 -81.67 33.71 C-75.03 16.19 -62.14 1.58 -44.96 -6.32 C-29.71 -12.75 -13.5 -8.8 0 0 Z " fill="#FEFEFE" transform="translate(270.66796875,211.28515625)"/>
<path d="M0 0 C0.52 0.35 1.04 0.7 1.58 1.07 C4.05 2.72 6.52 4.36 9 6 C9.81 6.54 10.62 7.08 11.45 7.64 C23.26 15.38 35.81 21.94 49 27 C48.93 27.8 48.86 28.59 48.78 29.41 C46.13 63.8 44.91 103.99 67.19 132.69 C77.31 144.41 91.26 154.62 107.09 156.21 C120.96 156.85 134.11 149.94 144.25 140.94 C152.08 133.66 157.36 124.55 162 115 C169.45 115.4 175.93 116.98 182.94 119.5 C183.93 119.85 184.92 120.2 185.94 120.57 C194.79 123.78 203.5 127.42 211.81 131.86 C213.96 133.02 213.96 133.02 216.13 133.91 C218.47 135.06 220.17 136.13 222 138 C223.12 141.74 222.93 145.33 222.78 149.21 C222.77 150.17 222.77 151.12 222.76 152.11 C222.72 155.68 222.6 159.25 222.5 162.81 C222.34 170.79 222.17 178.78 222 187 C204.84 187 187.68 187 170 187 C169.67 182.05 169.34 177.1 169 172 C167.68 173.15 166.36 174.31 165 175.5 C158.3 180.89 150.79 184.44 143 188 C142.2 188.37 141.41 188.74 140.59 189.12 C128.56 193.19 114.98 193.28 102.44 193.31 C101.29 193.32 100.13 193.32 98.95 193.33 C88.33 193.24 78.25 191.81 68.19 188.38 C67.05 187.99 67.05 187.99 65.88 187.59 C38.9 178.05 17.26 158.02 4.83 132.35 C3.86 130.25 2.92 128.13 2 126 C1.69 125.28 1.38 124.56 1.06 123.82 C-14.81 85.91 -14.34 39.58 -1 1 C-0.67 0.67 -0.34 0.34 0 0 Z " fill="#39A254" transform="translate(135,237)"/>
<path d="M0 0 C0.52 0.35 1.04 0.7 1.58 1.07 C4.05 2.72 6.52 4.36 9 6 C9.81 6.54 10.62 7.08 11.45 7.64 C23.26 15.38 35.81 21.94 49 27 C48.93 27.8 48.86 28.59 48.78 29.41 C46.76 55.62 47.64 81.24 53 107 C51.87 107.35 50.73 107.7 49.56 108.06 C33.36 113.54 17.63 119.98 6 133 C-2.47 124.53 -5.21 106.42 -7 95 C-7.27 93.65 -7.55 92.3 -7.84 90.95 C-13.66 61.6 -10.74 29.19 -1 1 C-0.67 0.67 -0.34 0.34 0 0 Z " fill="#4481E4" transform="translate(135,237)"/>
<path d="M0 0 C0.33 0 0.66 0 1 0 C1 43.23 1 86.46 1 131 C-2.69 129.52 -5.93 127.96 -9.37 126.03 C-24.9 117.37 -41.67 111.77 -59 108 C-58.82 107.38 -58.65 106.75 -58.47 106.11 C-57.65 103.2 -56.86 100.29 -56.06 97.38 C-55.78 96.4 -55.51 95.42 -55.22 94.41 C-51.52 80.68 -51.86 66.73 -51.94 52.62 C-51.94 51 -51.95 49.38 -51.95 47.76 C-51.96 43.84 -51.98 39.92 -52 36 C-50.39 35.42 -50.39 35.42 -48.75 34.83 C-47.32 34.31 -45.88 33.79 -44.45 33.26 C-43.75 33.01 -43.04 32.76 -42.32 32.5 C-26.31 26.61 -12.56 14.64 -1.61 1.8 C-1.08 1.21 -0.55 0.61 0 0 Z " fill="#F8BB0B" transform="translate(356,244)"/>
<path d="M0 0 C18.15 0 36.3 0 55 0 C55 30.36 55 60.72 55 92 C47 86 47 86 44.33 83.83 C38.13 78.86 31.64 74.96 24.62 71.25 C23.79 70.8 22.95 70.35 22.09 69.89 C14.82 66.14 7.89 63.82 0 61 C0 40.87 0 20.74 0 0 Z " fill="#4C8AED" transform="translate(302,75)"/>
</svg>
