<?xml version="1.0" encoding="UTF-8"?>
<!-- Generator: Adobe Illustrator 16.0.0, SVG Export Plug-In . SVG Version: 6.00 Build 0)  -->
<!DOCTYPE svg PUBLIC "-//W3C//DTD SVG 1.1//EN" "http://www.w3.org/Graphics/SVG/1.1/DTD/svg11.dtd">
<svg version="1.1" id="Layer_1" xmlns="http://www.w3.org/2000/svg" xmlns:xlink="http://www.w3.org/1999/xlink" x="0px" y="0px" width="378px" height="378px" viewBox="-61 -44.5 378 378" enable-background="new -61 -44.5 378 378" xml:space="preserve">
<g>
	<path fill="#CCCCCC" d="M101.292,204.67c-0.342,0-0.512-0.246-0.512-0.742v-10.765c-4.268-1.856-7.788-5.476-10.56-10.857   c-2.774-5.382-4.16-11.476-4.16-18.282v-7.053c0-0.492,0.17-0.742,0.512-0.742H98.22c0.256,0,0.384,0.25,0.384,0.742v7.053   c0,3.22,0.788,6.033,2.368,8.445c1.578,2.413,3.434,3.619,5.568,3.619c2.218,0,4.074-1.206,5.568-3.619   c1.492-2.412,2.24-5.104,2.24-8.074c0-3.833-1.664-7.113-4.992-9.836c-1.11-0.989-2.86-2.413-5.248-4.27   c-2.39-1.855-4.608-3.587-6.656-5.196c-4.012-3.216-6.934-7.36-8.768-12.435c-1.836-5.072-2.752-10.765-2.752-17.075   c0-6.928,1.386-12.96,4.16-18.096c2.772-5.133,6.25-8.63,10.432-10.486V76.235c0-0.493,0.17-0.743,0.512-0.743h11.136   c0.426,0,0.64,0.25,0.64,0.743v10.95c4.096,1.856,7.488,5.382,10.176,10.579s4.032,11.136,4.032,17.818v12.435   c0,0.371-0.128,0.557-0.384,0.557H114.86c-0.256,0-0.384-0.186-0.384-0.557l-0.128-12.435c0-3.587-0.79-6.464-2.368-8.63   c-1.58-2.164-3.392-3.248-5.44-3.248c-2.134,0-3.948,1.177-5.44,3.526c-1.494,2.352-2.24,5.136-2.24,8.352   c0,3.094,0.468,5.725,1.408,7.888c0.938,2.167,2.644,4.301,5.12,6.403l10.624,8.538c3.498,2.723,6.25,6.125,8.256,10.208   c2.004,4.084,3.008,9.219,3.008,15.404c0,7.053-1.324,13.148-3.968,18.282c-2.646,5.136-6.06,8.694-10.24,10.672v10.95   c0,0.496-0.214,0.742-0.64,0.742H101.292z"/>
	<path fill="#CCCCCC" d="M137.132,204.67c-0.342,0-0.512-0.246-0.512-0.742v-20.973c0-0.492,0.17-0.742,0.512-0.742h14.464   c0.34,0,0.512,0.25,0.512,0.742v20.973c0,0.496-0.172,0.742-0.512,0.742H137.132z"/>
	<path fill="#CCCCCC" d="M154.922,131.358l0.512-16.147l-8.063,9.094l-5.504-10.765l10.624-9.466l-10.752-9.651l5.632-10.765   l8.192,9.094l-0.641-17.075h9.473l-0.768,17.075l8.32-8.723l5.504,10.765l-10.625,9.094l10.625,9.28l-5.633,10.765l-8.064-8.909   l0.514,16.333H154.922z"/>
</g>
<path id="path4544" fill="#CCCCCC" d="M72.878,260.072c-15.135-3.287-26.503-12.16-30.461-23.777  c-2.759-8.098-2.366-21.229,1.167-38.984c1.696-8.521,3.083-18.695,3.082-22.607c-0.004-13.002-5.982-20.055-17.832-21.035  l-6.835-0.566v-8.365v-8.365l6.476-0.877c9.448-1.28,13.091-3.596,16-10.17c2.137-4.833,2.409-7.234,1.767-15.639  c-0.417-5.462-1.871-15.204-3.233-21.648c-3.459-16.373-3.314-29.667,0.409-37.665c5.484-11.778,19.01-20.469,34.727-22.317  l6.758-0.794v8.804v8.803h-4.544c-6.194,0-14.858,4.414-17.074,8.699c-2.125,4.111-2.286,10.013-0.553,20.286  c2.738,16.235,3.661,31.81,2.363,39.933c-1.485,9.294-6.905,20.265-12.863,26.041l-4.125,3.999l5.646,6.931  c6.959,8.543,9.666,14.504,11.337,24.971c1.323,8.283,0.295,25.465-2.345,39.209c-3.683,19.178,0.567,26.752,16.3,29.041  l5.858,0.852v8.559C84.901,263.146,85.499,262.814,72.878,260.072L72.878,260.072z"/>
<path id="path4546" fill="#CCCCCC" d="M175.096,253.289v-8.496l7.164-1.479c7.912-1.635,14.177-6.516,15.588-12.148  c0.447-1.773-0.392-11.063-1.864-20.637c-4.795-31.221-2.137-47.332,9.981-60.48l5.183-5.621l-3.883-4.424  c-13.908-15.842-16.322-29.9-11.025-64.224c2.671-17.293,2.672-17.461,0.306-21.584c-2.788-4.854-11.481-9.706-17.392-9.706h-4.056  v-8.634c0-9.828-0.204-9.697,11.349-7.247c13.859,2.939,23.789,9.975,28.94,20.505c2.956,6.042,3.399,8.391,3.316,17.519  c-0.052,5.798-1.248,16.37-2.66,23.493c-5.238,26.444-4.771,33.481,2.677,40.321c3.46,3.176,5.734,4.1,11.783,4.785l7.498,0.848  v8.475v8.474l-5.859,0.002c-7.521,0.002-13.748,3.18-16.918,8.631c-3.326,5.729-3.117,18.205,0.608,36.389  c3.169,15.459,3.68,29.572,1.356,37.51c-2.449,8.369-13.356,18.514-23.591,21.945c-4.409,1.479-10.377,3.045-13.259,3.482  l-5.24,0.797v-8.496H175.096L175.096,253.289z"/>
</svg>